<svg xmlns="http://www.w3.org/2000/svg" viewBox="0 0 72.892 25.853">
  <defs>
    <style>
      .cls-1 {
        fill: #fff;
      }

      .cls-2, .cls-3 {
        stroke: none;
      }

      .cls-3 {
        fill: #707070;
      }
    </style>
  </defs>
  <g id="Union_1" data-name="Union 1" class="cls-1" transform="translate(3316 168)">
    <path class="cls-2" d="M -3250.537353515625 -142.6468963623047 L -3313 -142.6468963623047 C -3314.37841796875 -142.6468963623047 -3315.499755859375 -143.7682647705078 -3315.499755859375 -145.1466064453125 L -3315.499755859375 -164.9997100830078 C -3315.499755859375 -166.3785552978516 -3314.37841796875 -167.5003051757812 -3313 -167.5003051757812 L -3250.537353515625 -167.5003051757812 C -3249.158447265625 -167.5003051757812 -3248.03662109375 -166.3785552978516 -3248.03662109375 -164.9997100830078 L -3248.03662109375 -159.3936004638672 L -3248.03662109375 -158.8936004638672 L -3247.53662109375 -158.8936004638672 L -3243.607666015625 -158.8936004638672 L -3243.607666015625 -151.6649017333984 L -3247.53662109375 -151.6649017333984 L -3248.03662109375 -151.6649017333984 L -3248.03662109375 -151.1649017333984 L -3248.03662109375 -145.1466064453125 C -3248.03662109375 -143.7682647705078 -3249.158447265625 -142.6468963623047 -3250.537353515625 -142.6468963623047 Z"/>
    <path class="cls-3" d="M -3250.537353515625 -143.1468963623047 C -3249.43408203125 -143.1468963623047 -3248.53662109375 -144.0439758300781 -3248.53662109375 -145.1466064453125 L -3248.53662109375 -151.1649017333984 L -3248.53662109375 -152.1649017333984 L -3247.53662109375 -152.1649017333984 L -3244.107666015625 -152.1649017333984 L -3244.107666015625 -158.3936004638672 L -3247.53662109375 -158.3936004638672 L -3248.53662109375 -158.3936004638672 L -3248.53662109375 -159.3936004638672 L -3248.53662109375 -164.9997100830078 C -3248.53662109375 -166.1028442382812 -3249.43408203125 -167.0003051757812 -3250.537353515625 -167.0003051757812 L -3313 -167.0003051757812 C -3314.102783203125 -167.0003051757812 -3314.999755859375 -166.1028442382812 -3314.999755859375 -164.9997100830078 L -3314.999755859375 -145.1466064453125 C -3314.999755859375 -144.0439758300781 -3314.102783203125 -143.1468963623047 -3313 -143.1468963623047 L -3250.537353515625 -143.1468963623047 M -3250.537353515625 -142.1468963623047 L -3313 -142.1468963623047 C -3314.656982421875 -142.1468963623047 -3315.999755859375 -143.4897003173828 -3315.999755859375 -145.1466064453125 L -3315.999755859375 -164.9997100830078 C -3315.999755859375 -166.6566009521484 -3314.656982421875 -168.0003051757812 -3313 -168.0003051757812 L -3250.537353515625 -168.0003051757812 C -3248.88037109375 -168.0003051757812 -3247.53662109375 -166.6566009521484 -3247.53662109375 -164.9997100830078 L -3247.53662109375 -159.3936004638672 L -3243.107666015625 -159.3936004638672 L -3243.107666015625 -151.1649017333984 L -3247.53662109375 -151.1649017333984 L -3247.53662109375 -145.1466064453125 C -3247.53662109375 -143.4897003173828 -3248.88037109375 -142.1468963623047 -3250.537353515625 -142.1468963623047 Z"/>
  </g>
</svg>
